<?xml version="1.0" encoding="UTF-8"?>
<svg width="64px" height="64px" viewBox="0 0 64 64" version="1.1" xmlns="http://www.w3.org/2000/svg" xmlns:xlink="http://www.w3.org/1999/xlink">
    <title>工业企业</title>
    <defs>
        <linearGradient x1="8.14291793%" y1="6.00244585%" x2="60.4777332%" y2="58.3444773%" id="linearGradient-1">
            <stop stop-color="#9DC4FF" offset="0%"></stop>
            <stop stop-color="#84ABFF" offset="100%"></stop>
        </linearGradient>
    </defs>
    <g id="草稿纸" stroke="none" stroke-width="1" fill="none" fill-rule="evenodd">
        <g id="1.1服务配置-banner配置" transform="translate(-264.000000, -297.000000)" fill-rule="nonzero">
            <g id="main" transform="translate(224.000000, 199.000000)">
                <g id="工业企业" transform="translate(40.000000, 98.000000)">
                    <rect id="矩形" fill="url(#linearGradient-1)" x="0" y="0" width="64" height="64" rx="10"></rect>
                    <path d="M42.0675333,23.6863366 C42.0675333,23.1269888 42.7147735,22.7865163 43.1702389,23.1513083 L43.1702389,23.1513083 L49.6905854,28.3799937 C49.8583885,28.5015911 49.9542759,28.6961468 49.9542759,28.915022 L49.9542759,28.915022 L49.9542759,46.9843861 L52.3514621,46.9843861 C52.71104,46.9843861 53.0226743,47.3005391 52.9987024,47.6410117 L52.9987024,47.6410117 L52.9987024,49.3190549 C52.9987024,49.6838469 52.71104,50 52.3274902,50 L52.3274902,50 L11.6712122,50 C11.3116342,50 11,49.7081664 11,49.3190549 L11,49.3190549 L11,47.6410117 C11,47.2762197 11.2876624,46.9600666 11.6712122,46.9600666 L11.6712122,46.9600666 L13.4211581,46.9600666 C13.780736,46.9600666 14.0923702,46.668233 14.0923702,46.2791215 L14.0923702,46.2791215 L14.0923702,29.2554946 C14.0923702,28.8907026 14.3800326,28.5745495 14.7635824,28.5745495 L14.7635824,28.5745495 L25.6707796,28.5745495 C26.0303575,28.5745495 26.3419917,28.2827158 26.3419917,27.8936044 L26.3419917,27.8936044 L26.3419917,23.6863366 C26.3419917,23.1269888 26.989232,22.7865163 27.4207255,23.1513083 L27.4207255,23.1513083 L33.078085,27.6990487 C33.5335504,28.0638407 34.1807906,27.7476876 34.1807906,27.1640204 L34.1807906,27.1640204 L34.1807906,23.6863366 C34.1807906,23.1269888 34.8520028,22.7865163 35.2834963,23.1513083 L35.2834963,23.1513083 L40.9648276,27.6990487 C41.420293,28.0638407 42.0675333,27.7476876 42.0675333,27.1640204 L42.0675333,27.1640204 Z M22.5544375,38.0834611 L17.7360932,38.0834611 C17.3765153,38.0834611 17.0648811,38.3752947 17.0648811,38.7644062 L17.0648811,38.7644062 L17.0648811,46.2061631 C17.0648811,46.5709551 17.3525435,46.8871082 17.7360932,46.8871082 L17.7360932,46.8871082 L22.5544375,46.8871082 C22.9140155,46.8871082 23.2256497,46.5952746 23.2256497,46.2061631 L23.2256497,46.2061631 L23.2256497,38.7644062 C23.2256497,38.3996142 22.9379873,38.0834611 22.5544375,38.0834611 L22.5544375,38.0834611 Z M32.9821975,31.8090386 L27.8282472,31.8090386 C27.4686692,31.8090386 27.157035,32.1008722 27.157035,32.4899837 L27.157035,32.4899837 L27.157035,34.3139437 C27.157035,34.6787357 27.4446974,34.9948888 27.8282472,34.9948888 L27.8282472,34.9948888 L32.9821975,34.9948888 C33.3417755,34.9948888 33.6534097,34.7030552 33.6534097,34.3139437 L33.6534097,34.3139437 L33.6534097,32.4899837 C33.6534097,32.1251917 33.3657473,31.8090386 32.9821975,31.8090386 L32.9821975,31.8090386 Z M40.8209964,31.8090386 L35.6670461,31.8090386 C35.3074682,31.8090386 34.995834,32.1008722 34.995834,32.4899837 L34.995834,32.4899837 L34.995834,34.3139437 C34.995834,34.6787357 35.2834963,34.9948888 35.6670461,34.9948888 L35.6670461,34.9948888 L41.4922086,34.9948888 L41.4922086,32.4899837 C41.4922086,32.1251917 41.2045462,31.8090386 40.8209964,31.8090386 L40.8209964,31.8090386 Z M48.6597953,31.8090386 L43.505845,31.8090386 C43.1462671,31.8090386 42.8346328,32.1008722 42.8346328,32.4899837 L42.8346328,32.4899837 L42.8346328,34.3139437 C42.8346328,34.6787357 43.1222952,34.9948888 43.505845,34.9948888 L43.505845,34.9948888 L48.6597953,34.9948888 C49.0193732,34.9948888 49.3310075,34.7030552 49.3310075,34.3139437 L49.3310075,34.3139437 L49.3310075,32.4899837 C49.3310075,32.1251917 49.0433451,31.8090386 48.6597953,31.8090386 L48.6597953,31.8090386 Z M20.9114185,15.6894708 C21.240605,15.6894708 21.5227648,15.9262118 21.5697914,16.2576491 L23.7095034,27.2187549 C23.75653,27.6212145 23.4273436,28 23.0276172,28 L15.6679485,28 C15.2682221,28 14.9390357,27.6212145 15.0095756,27.2187549 L17.1492876,16.2576491 C17.1963142,15.9262118 17.478474,15.6894708 17.8076605,15.6894708 L20.9114185,15.6894708 Z M19.3360262,15.4527299 C21.6168181,13.464106 23.6859901,14.1033065 23.6859901,14.0796324 C26.484075,15.5474263 29,14.7661811 29,14.7661811 C27.1631949,16.1921972 24.5973956,15.5421016 24.3018925,15.4606855 L24.273823,15.4527299 C21.4992514,14.1743288 19.3360262,15.4527299 19.3360262,15.4527299 Z" id="形状结合" fill="#FFFFFF"></path>
                </g>
            </g>
        </g>
    </g>
</svg>