<?xml version="1.0" encoding="UTF-8"?>
<svg width="64px" height="64px" viewBox="0 0 64 64" version="1.1" xmlns="http://www.w3.org/2000/svg" xmlns:xlink="http://www.w3.org/1999/xlink">
    <title>数-服务商</title>
    <defs>
        <linearGradient x1="8.79856435%" y1="0%" x2="50%" y2="50%" id="linearGradient-1">
            <stop stop-color="#FFC9A5" offset="0%"></stop>
            <stop stop-color="#FFAB82" offset="100%"></stop>
        </linearGradient>
    </defs>
    <g id="草稿纸" stroke="none" stroke-width="1" fill="none" fill-rule="evenodd">
        <g id="1.1服务配置-banner配置" transform="translate(-540.000000, -297.000000)" fill-rule="nonzero">
            <g id="main" transform="translate(224.000000, 199.000000)">
                <g id="数-服务商" transform="translate(316.000000, 98.000000)">
                    <rect id="矩形" fill="url(#linearGradient-1)" x="0" y="0" width="64" height="64" rx="10"></rect>
                    <path d="M47.8333333,16 C48.4776655,16 49,16.5176708 49,17.15625 L49,51.84375 C49,52.4823292 48.4776655,53 47.8333333,53 L44.3333333,52.9988437 L44.3275,52.8277187 C44.2386953,51.5839215 43.1708824,50.633868 41.9136043,50.6800296 C40.6563261,50.7261913 39.6623689,51.7519438 39.6666667,52.9988437 L37.3333333,52.9988437 L37.3275,52.8277187 C37.2386953,51.5839215 36.1708824,50.633868 34.9136043,50.6800296 C33.6563261,50.7261913 32.6623689,51.7519438 32.6666667,52.9988437 L30.3333333,52.9988437 L30.3275,52.8277187 C30.2386953,51.5839215 29.1708824,50.633868 27.9136043,50.6800296 C26.6563261,50.7261913 25.6623689,51.7519438 25.6666667,52.9988437 L23.3333333,52.9988437 L23.3275,52.8277187 C23.2386953,51.5839215 22.1708824,50.633868 20.9136043,50.6800296 C19.6563261,50.7261913 18.6623689,51.7519438 18.6666667,52.9988437 L15.1666667,53 C14.5223345,53 14,52.4823292 14,51.84375 L14,17.15625 C14,16.5176708 14.5223345,16 15.1666667,16 L47.8333333,16 Z M45,42 L19,42 L19,44 L45,44 L45,42 Z M45,35 L19,35 L19,37 L45,37 L45,35 Z M27.8888889,21 L20.1111111,21 C19.4974614,21 19,21.5036797 19,22.125 L19,28.875 C19,29.4963203 19.4974614,30 20.1111111,30 L27.8888889,30 C28.5025386,30 29,29.4963203 29,28.875 L29,22.125 C29,21.5036797 28.5025386,21 27.8888889,21 Z M44,28 L32,28 L32,30 L44,30 L44,28 Z" id="形状" fill="#FFFFFF"></path>
                </g>
            </g>
        </g>
    </g>
</svg>