<?xml version="1.0" encoding="UTF-8"?>
<svg width="64px" height="64px" viewBox="0 0 64 64" version="1.1" xmlns="http://www.w3.org/2000/svg" xmlns:xlink="http://www.w3.org/1999/xlink">
    <title>数-专家</title>
    <defs>
        <linearGradient x1="5.20159289%" y1="7.68379876%" x2="50%" y2="50%" id="linearGradient-1">
            <stop stop-color="#C8B7FF" offset="0%"></stop>
            <stop stop-color="#AF9CFF" offset="100%"></stop>
        </linearGradient>
    </defs>
    <g id="草稿纸" stroke="none" stroke-width="1" fill="none" fill-rule="evenodd">
        <g id="1.1服务配置-banner配置" transform="translate(-810.000000, -297.000000)" fill-rule="nonzero">
            <g id="main" transform="translate(224.000000, 199.000000)">
                <g id="数-专家" transform="translate(586.000000, 98.000000)">
                    <rect id="矩形" fill="url(#linearGradient-1)" x="0" y="0" width="64" height="64" rx="10"></rect>
                    <g id="专家-(1)" transform="translate(13.000000, 14.000000)" fill="#FFFFFF">
                        <path d="M11.791887,24.8398557 C11.9007721,25.2489241 11.9932716,25.6627925 12.1021568,26.0739943 C12.2205562,26.5235962 12.3569269,26.9683981 12.4774406,27.4201334 L12.6819967,28.2185367 C12.7163537,28.3518706 12.7512392,28.4852046 12.7877104,28.6185385 L13.304122,30.5134799 L13.4093072,30.9113482 L13.6101634,31.707085 L13.9917899,33.0884242 C14.1006751,33.5001593 14.1910603,33.9140277 14.3020598,34.3252295 L14.6725865,35.6687019 L14.7804145,36.0799037 L14.9876134,36.9049738 C15.1313841,37.4756429 15.2703977,38.0489787 15.4252683,38.6169812 C15.4321397,38.6473813 15.4559253,38.6724481 15.4886966,38.6985815 L15.6118531,38.7860485 C15.6277101,38.7977819 15.6435672,38.810582 15.6594242,38.8239154 L15.7397667,37.9956452 C15.7661951,37.7327107 15.7926236,37.4793763 15.8259234,37.2281752 L15.9480228,36.3551048 L16.2059643,34.6126974 L16.2604069,34.1748289 L16.3560778,33.2980251 L16.6177193,31.2766831 C16.6703468,30.8849255 16.7182739,30.4925395 16.76149,30.0996115 C16.8196326,29.5129423 16.8608609,28.9225398 16.9237606,28.3353373 C16.9560033,28.021736 17.0210173,27.7102679 17.0506171,27.3966666 C17.0939597,26.9646648 16.9935317,26.5625297 16.8709037,26.1635947 L16.7313616,25.7155927 C16.7162404,25.6656083 16.701616,25.6154722 16.6874904,25.5651921 C16.6319907,25.3513245 16.5505911,25.1374569 16.5231055,24.9209227 C16.5162341,24.851589 16.6478478,24.697455 16.714976,24.6974551 C17.5324672,24.6889694 18.3500014,24.6854138 19.1675348,24.6867884 L20.3922285,24.6878551 C20.5682419,24.6878551 20.6332558,24.7305219 20.5682419,24.9331894 C20.4989994,25.145457 20.4376854,25.3598579 20.3790143,25.5737255 L20.2072295,26.2169282 C20.1607154,26.3875956 20.1031014,26.5593296 20.0750873,26.7353304 C19.9778307,27.3342663 20.0613445,27.9241355 20.1818582,28.5188047 C20.2347151,28.7710724 20.2659006,29.0270735 20.2907433,29.283608 L20.3367288,29.7977435 C20.3922285,30.4206795 20.4249998,31.0457488 20.4989994,31.6665515 C20.6126417,32.5748221 20.7537695,33.4788259 20.8763975,34.3844297 C20.93454,34.7886981 20.9831683,35.1929665 21.0201681,35.5972349 C21.080425,36.2084375 21.1242962,36.8217735 21.1819102,37.4303094 C21.2167957,37.8036443 21.265424,38.1748459 21.3235666,38.5433808 C21.3272666,38.5737809 21.3468236,38.6020477 21.3764235,38.6340479 L21.4916514,38.7508484 C21.5069799,38.7668484 21.5223084,38.7839152 21.538694,38.8025819 L21.8727495,37.4703096 C21.9160921,37.3033756 21.9594348,37.1385748 22.0043631,36.9743075 C22.1618766,36.3844383 22.3426471,35.8015025 22.5065034,35.2143 C22.6201457,34.8052315 22.715288,34.3892298 22.8215303,33.978028 L23.0710147,33.0852242 C23.1122431,32.9358902 23.1529429,32.7865563 23.1925856,32.6372223 C23.303585,32.2281538 23.3960845,31.8142854 23.5097268,31.405217 C23.6249548,30.9652152 23.7528684,30.52788 23.8728535,30.0878781 C23.9796244,29.6836097 24.0837524,29.2697413 24.1952804,28.8633395 L24.5721499,27.4820003 C24.681035,27.0606652 24.7735346,26.6355967 24.8850626,26.2169282 C25.0008191,25.7769263 25.1350756,25.3422578 25.2550607,24.9065226 C25.3644744,24.5070542 25.4590882,24.1054525 25.5658591,23.7059842 L25.5817162,23.6345172 L25.6081446,23.4851832 C25.630873,23.359316 25.6599443,23.2403822 25.7323582,23.1779819 C25.8713718,23.0590481 26.1467561,22.9827811 26.3069124,23.039848 C26.6029109,23.1486485 26.895738,23.2665156 27.1869793,23.3875828 L28.0596463,23.755051 C28.2050027,23.8158513 28.3508877,23.8755849 28.4973012,23.9342518 C29.2520973,24.2361198 30.0164077,24.5166543 30.7738466,24.8115889 C31.3758864,25.0467899 31.9779262,25.2846576 32.5752088,25.5294586 C33.3463906,25.8457266 34.0826867,26.2190616 34.7566119,26.7209304 C35.3634088,27.1753323 35.8401777,27.734268 36.1113335,28.4329377 C36.1816331,28.6094717 36.2101758,28.8020059 36.2276186,28.9972068 L36.2514042,29.2921413 L36.2640899,29.4388086 C36.3243467,30.0596113 36.3565894,30.6846806 36.4194891,31.3076166 L36.5008886,32.0393531 L36.6737306,33.5022927 L36.6832448,33.6020264 C36.7361017,34.3438962 36.7873729,35.079366 36.8455154,35.8159025 C36.8846295,36.3273714 36.9242722,36.8383069 36.9914004,37.342309 C37.0955285,38.1583125 36.2360758,39.0068495 35.3866658,39 C32.5905373,38.974316 29.796523,38.967916 27.0003946,38.967916 L21.4065519,38.9689826 C14.8649855,38.9689826 8.32077624,38.9737827 1.77445271,38.9903161 C1.1930271,38.9903161 0.690886865,38.8623155 0.366345653,38.3865802 C-0.0226808995,37.8105777 -0.0734235115,37.1497749 0.0814471269,36.479372 C0.0978327518,36.4127051 0.132718271,36.3487048 0.132718271,36.2841712 L0.238432035,34.829765 C0.256403351,34.5876306 0.275960403,34.3454963 0.299217416,34.1044286 C0.361588535,33.4857593 0.461488022,32.8697566 0.540244766,32.253754 L0.551873272,32.1518869 L0.571430325,31.8404189 L0.601558726,31.2148162 C0.617415772,30.9022815 0.638558515,30.5902802 0.679258312,30.2825456 L0.727886654,29.9758776 C0.759600792,29.8030769 0.776514996,29.6276094 0.791314884,29.4510754 L0.814043365,29.1865409 C0.853686003,28.7460057 0.919228549,28.3076038 1.20729846,27.9049354 C1.65674031,27.2827635 2.21640213,26.7498791 2.85801855,26.3331954 C3.50974378,25.9086602 4.22066869,25.612659 4.942165,25.3379912 L5.75563225,25.0318565 L6.02573084,24.9278561 C6.87566935,24.5950547 7.71186504,24.2291864 8.5591607,23.8819849 C9.27130231,23.5889965 9.98777011,23.30683 10.7083211,23.0355813 C11.0413194,22.9070475 11.3452464,23.1422485 11.4218889,23.4921166 C11.5233741,23.9438519 11.6740162,24.3881204 11.791887,24.8398557 Z M19.1767653,0.0365266245 L33.7280037,6.30613124 C33.8929867,6.37704958 34,6.54006135 34,6.72045936 C34,6.90085738 33.8929867,7.06386915 33.7280037,7.13478748 L27.6615012,9.74852486 L27.8142097,10.442577 C27.8968397,10.8300895 27.9690101,11.2223341 27.9653493,11.6108982 C27.9410788,12.3291982 27.8673372,13.0449445 27.7446541,13.7529956 C27.6845121,14.1720559 27.5553374,14.5800744 27.4517885,14.9922994 C27.258288,15.7804692 26.8864532,16.501337 26.4884697,17.2153695 C25.809649,18.4315382 24.891829,19.4636779 23.7480841,20.3349237 C22.9989882,20.9117238 22.1527482,21.3482591 21.2498357,21.6236524 C20.4324267,21.8713028 19.6024665,22.0427127 18.7468804,21.9906588 C17.3916694,21.915616 16.0779571,21.4939291 14.9302136,20.7655515 C13.9135514,20.1188211 13.0244951,19.3437962 12.3650244,18.3800101 C11.8992916,17.7170619 11.4787304,17.0231761 11.1062251,16.3031115 C10.8886678,15.8656483 10.7244538,15.4024211 10.5743602,14.9360391 L10.3991638,14.3771167 C10.3113041,14.1047538 10.2851554,13.8171428 10.252731,13.5332124 L10.1287861,12.546817 L10.0346507,11.7686373 L10.2647594,10.5729747 L10.3683083,10.0508582 L10.4221747,9.78480487 L4.27199631,7.13478748 C4.10701325,7.06386915 4,6.90085738 4,6.72045936 C4,6.54006135 4.10701325,6.37704958 4.27199631,6.30613124 L18.8232347,0.0365266245 C18.9361002,-0.0121755415 19.0638998,-0.0121755415 19.1767653,0.0365266245 Z" id="形状"></path>
                    </g>
                </g>
            </g>
        </g>
    </g>
</svg>