<?xml version="1.0" encoding="UTF-8"?>
<svg width="64px" height="64px" viewBox="0 0 64 64" version="1.1" xmlns="http://www.w3.org/2000/svg" xmlns:xlink="http://www.w3.org/1999/xlink">
    <title>数-需求</title>
    <defs>
        <linearGradient x1="8.79856435%" y1="0%" x2="50%" y2="50%" id="linearGradient-1">
            <stop stop-color="#FFC9A5" offset="0%"></stop>
            <stop stop-color="#FFAB82" offset="100%"></stop>
        </linearGradient>
    </defs>
    <g id="草稿纸" stroke="none" stroke-width="1" fill="none" fill-rule="evenodd">
        <g id="1.1服务配置-banner配置" transform="translate(-264.000000, -428.000000)" fill-rule="nonzero">
            <g id="main" transform="translate(224.000000, 199.000000)">
                <g id="数-需求" transform="translate(40.000000, 229.000000)">
                    <rect id="矩形" fill="url(#linearGradient-1)" x="0" y="0" width="64" height="64" rx="10"></rect>
                    <g id="企业" transform="translate(12.000000, 15.000000)" fill="#FFFFFF">
                        <path d="M40.5469144,33.9039268 L37.7719998,33.9039268 L37.7719998,13.3863957 C37.7667012,11.6728437 36.3834995,10.2882088 34.6810012,10.2914001 L25.0047644,10.2914001 L25.0047644,33.5866975 L24.0579307,33.5866975 L24.0579307,10.290364 L24.0515055,10.290364 L24.0515055,3.09501206 C24.0488353,1.38307642 22.6673026,-0.00317491712 20.9663897,5.46145806e-06 L7.0151323,5.46145806e-06 C6.19447101,5.46145806e-06 5.40797694,0.326457327 4.83091448,0.90611345 C4.25090456,1.48885105 3.92597537,2.27552143 3.92680385,3.09501206 L3.92680385,33.9012742 L1.47181178,33.9012742 C0.646722169,33.9421402 1.15217183e-05,34.6238474 1.15217183e-05,35.450948 C-0.00314861177,36.27435 0.644134109,36.9556181 1.47181178,37.0000055 L40.5452872,37.0000055 C41.3607808,36.952254 41.9978722,36.2742769 42,35.4519841 C42,34.6323439 41.3623663,33.9522116 40.5452872,33.9028906 L40.5469144,33.9039268 Z M11.8848214,27.7500625 C11.8059331,27.8279307 11.6987863,27.8709346 11.5875873,27.8693588 L8.00952883,27.8693588 C7.78038265,27.8696337 7.59438588,27.6853478 7.5940635,27.4577151 L7.5940635,25.9510625 C7.5940635,25.7197512 7.77722204,25.5308809 8.00952883,25.5308809 L11.5875873,25.5308809 C11.8194872,25.5314753 12.0070846,25.7185384 12.0068329,25.9489073 L12.0068329,27.4555599 C12.0076833,27.5660322 11.9637098,27.6721944 11.8848214,27.7500625 Z M11.8888161,18.9761436 C11.811697,19.0549453 11.7062213,19.1000816 11.5955979,19.1016207 L8.00957055,19.1016207 C7.89838501,19.1006358 7.7921477,19.0558124 7.71423187,18.9770121 C7.63631605,18.8982118 7.59310487,18.7918901 7.59407181,18.681439 L7.59407181,17.1817079 C7.59407181,16.9503967 7.77726377,16.7657369 8.00957055,16.7657369 L11.5876291,16.7657369 C11.698944,16.7650434 11.8059141,16.8086228 11.8846743,16.8867694 C11.9634345,16.9649159 12.0074314,17.0711274 12.0068494,17.1817079 L12.0068494,18.681439 C12.0083789,18.7913314 11.9659353,18.8973418 11.8888161,18.9761436 Z M11.5955979,10.5142149 L8.00957055,10.5142149 C7.89891305,10.5139301 7.79291727,10.4699173 7.71497227,10.3918884 C7.63702728,10.3138594 7.59353959,10.2082278 7.59409443,10.0983022 L7.59409443,8.59803239 C7.59409443,8.36137454 7.77726377,8.17838953 8.00957055,8.17838953 L11.5876291,8.17838953 C11.8221054,8.17838953 12.0068658,8.36352974 12.0068658,8.59852974 L12.0068658,10.0983022 C12.0088677,10.3259549 11.8247641,10.5121641 11.5955979,10.5142149 Z M19.1733551,27.7465112 C19.0972379,27.8241156 18.9932024,27.8684997 18.8841398,27.8699087 L15.2916873,27.8699087 C15.0625236,27.8710681 14.8757899,27.6874789 14.8745948,27.4598288 L14.8745948,25.9510625 C14.8745948,25.7186736 15.0615083,25.5308809 15.2911449,25.5308809 L18.872416,25.5308809 C19.1031374,25.5308809 19.2900841,25.7186736 19.2900841,25.9510625 L19.2900841,27.4560987 C19.2914348,27.5644407 19.2494724,27.6689069 19.1733551,27.7465112 Z M19.1702506,18.9788835 C19.0916442,19.0579692 18.9842519,19.1022192 18.8723743,19.1016325 L15.2916873,19.1016325 C15.0603535,19.100456 14.873694,18.9133599 14.8745884,18.6835528 L14.8745884,17.1817079 C14.8745884,16.9503967 15.0593805,16.7657538 15.2911449,16.7657538 L18.872416,16.7657538 C19.1052235,16.7657538 19.2900509,16.9503967 19.2900509,17.1817079 L19.2900509,18.681439 C19.2920331,18.7925611 19.248857,18.8997977 19.1702506,18.9788835 Z M18.8825544,10.5142156 L15.2916873,10.5142156 C15.1811174,10.514358 15.0750269,10.4708246 14.9967912,10.3932067 C14.9185556,10.3155888 14.8745948,10.2102557 14.8745948,10.100416 L14.8745948,8.59852974 C14.8745948,8.36141598 15.0593805,8.17838647 15.2911449,8.17838647 L18.872416,8.17838647 C18.9841949,8.17808731 19.0914059,8.22242589 19.169946,8.30143713 C19.248486,8.38044837 19.2917643,8.48750177 19.2900509,8.59852974 L19.2900509,10.0983022 C19.2929791,10.3248746 19.1106296,10.5110092 18.8825544,10.5142156 Z M32.9398268,27.7465112 C32.8637096,27.8241156 32.7596741,27.8684997 32.6506115,27.8699152 L29.0597444,27.8699152 C28.950163,27.8706142 28.8447917,27.8280172 28.7668517,27.7514937 C28.6889117,27.6749703 28.6447999,27.5708012 28.6442374,27.4619426 L28.6442374,25.9510625 C28.6442374,25.7197512 28.8268953,25.5308809 29.0597444,25.5308809 L32.6404731,25.5308809 C32.8711945,25.5308809 33.058108,25.7186736 33.058108,25.9510625 L33.058108,27.4550625 L33.0570232,27.4560987 C33.0579064,27.5644407 33.0159441,27.6689069 32.9398268,27.7465112 Z M32.9367223,18.9788835 C32.8581159,19.0579692 32.7507236,19.1022192 32.638846,19.1016325 L29.059202,19.1016325 C28.9485373,19.1013468 28.8425308,19.0573388 28.7645768,18.9793087 C28.6866228,18.9012786 28.6431293,18.7956407 28.6436842,18.685708 L28.6436842,17.1817079 C28.6436842,16.9503967 28.8263529,16.7657538 29.059202,16.7657538 L32.6399308,16.7657538 C32.8722375,16.7657538 33.0575656,16.9503967 33.0575656,17.1817079 L33.0575656,18.681439 L33.0564808,18.681439 C33.0585048,18.7925611 33.0153286,18.8997977 32.9367223,18.9788835 Z" id="形状"></path>
                    </g>
                </g>
            </g>
        </g>
    </g>
</svg>