<?xml version="1.0" encoding="UTF-8"?>
<svg width="64px" height="64px" viewBox="0 0 64 64" version="1.1" xmlns="http://www.w3.org/2000/svg" xmlns:xlink="http://www.w3.org/1999/xlink">
    <title>数-服务数量</title>
    <defs>
        <linearGradient x1="8.14291793%" y1="6.00244585%" x2="60.4777332%" y2="58.3444773%" id="linearGradient-1">
            <stop stop-color="#9DC4FF" offset="0%"></stop>
            <stop stop-color="#84ABFF" offset="100%"></stop>
        </linearGradient>
    </defs>
    <g id="草稿纸" stroke="none" stroke-width="1" fill="none" fill-rule="evenodd">
        <g id="1.1服务配置-banner配置" transform="translate(-540.000000, -428.000000)" fill-rule="nonzero">
            <g id="main" transform="translate(224.000000, 199.000000)">
                <g id="数-服务数量" transform="translate(316.000000, 229.000000)">
                    <rect id="矩形" fill="url(#linearGradient-1)" x="0" y="0" width="64" height="64" rx="10"></rect>
                    <g id="解决方案" transform="translate(11.000000, 8.000000)" fill="#FFFFFF">
                        <path d="M24.9475165,39.5556563 L16.2422008,39.5556563 C15.5754799,39.5556563 15.0009074,40.1323963 15.0009074,40.8016323 C15.0009074,41.4708683 15.5754799,42.0476083 16.2422008,42.0476083 L24.9475165,42.0476083 C25.6196579,42.0476083 26.18881,41.4708683 26.18881,40.8016323 C26.18881,40.0344593 25.6196579,39.5556563 24.9475165,39.5556563 Z M18.2532046,46.0793471 C18.442922,47.232827 19.4023497,48 20.5460742,48 C21.6952192,48 22.6492264,47.13489 22.8389438,46.0793471 C24.3675235,45.9814101 25.5166685,44.7354341 25.5166685,43.2010882 L15.5754799,43.2010882 C15.5754799,44.7354341 16.8167734,45.9868511 18.2532046,46.0793471 Z M20.5460742,7.10587168 C21.407933,7.10587168 22.1722228,6.33869871 22.1722228,5.47358876 L22.1722228,1.63228293 C22.1722228,0.767172977 21.407933,0 20.5460742,0 C19.6842154,0 18.9199256,0.767172977 18.9199256,1.63228293 L18.9199256,5.47358876 C18.9199256,6.33325776 19.6896359,7.10587168 20.5460742,7.10587168 Z M9.83517524,9.50532759 C10.1224615,9.98413058 10.697034,10.1800045 11.1740376,10.1800045 C11.4613239,10.1800045 11.846179,10.0820676 12.1280448,9.89163455 C12.8923347,9.31489458 12.9899036,8.3572886 12.5129,7.59011562 L10.3121788,4.51598277 C9.73760633,3.74880979 8.78359913,3.65087282 8.01930928,4.12967581 C7.25501942,4.70641578 7.1574505,5.66402176 7.6344541,6.43119474 L9.83517524,9.50532759 L9.83517524,9.50532759 Z M5.81858813,14.9734754 L2.18685619,13.8199955 C1.32499742,13.5316255 0.370990226,14.0104285 0.0837039683,14.8755384 C-0.203582289,15.7406484 0.273421308,16.6982544 1.13528008,16.9866243 L4.77243251,18.1401043 C4.96214985,18.1401043 5.15728769,18.2380413 5.34700503,18.2380413 C6.01372597,18.2380413 6.6858674,17.7592383 6.87558474,17.0845613 C7.1574505,16.2248923 6.6804469,15.2618454 5.81858813,14.9734754 L5.81858813,14.9734754 Z M39.8701404,26.1110859 L36.2384085,24.957606 C35.3765497,24.669236 34.4225425,25.148039 34.1352563,26.0131489 C33.84797,26.8782589 34.3249736,27.8358649 35.1868324,28.1242349 L38.8185643,29.2777148 C39.0082816,29.3756518 39.2034195,29.3756518 39.2955679,29.3756518 C39.9622888,29.3756518 40.6344303,28.8968488 40.8241476,28.2221718 C41.2090028,27.3625028 40.7265787,26.3994559 39.8701404,26.1110859 L39.8701404,26.1110859 Z M4.86458094,24.9630469 L1.2274285,26.1165269 C0.365569731,26.4048968 -0.111433867,27.3625028 0.175852391,28.2276128 C0.365569731,28.8968488 1.03771116,29.3810927 1.7044321,29.3810927 C1.89414944,29.3810927 2.08928728,29.3810927 2.1814357,29.2831557 L5.81316764,28.1296758 C6.67502641,27.8413058 7.15203001,26.8836998 6.86474375,26.0185899 C6.58287799,25.1534799 5.72101921,24.6746769 4.86458094,24.9630469 L4.86458094,24.9630469 Z M35.7559844,18.2380413 C35.9457017,18.2380413 36.1408396,18.2380413 36.232988,18.1401043 L39.8647199,16.9866243 C40.7265787,16.6982544 41.2035823,15.7406484 40.916296,14.8755384 C40.6290098,14.0104285 39.6750026,13.5316255 38.8131438,13.8199955 L35.1814119,14.9734754 C34.3195531,15.2618454 33.8425495,16.2194514 34.1298358,17.0845613 C34.417122,17.7592383 35.083843,18.2380413 35.7559844,18.2380413 Z M30.8775385,4.51054183 L28.6768174,7.58467468 C28.1022448,8.35184765 28.2919622,9.31489458 29.0616725,9.88619361 C29.3489588,10.0766266 29.733814,10.1745636 30.0156797,10.1745636 C30.4926833,10.1745636 31.0672558,9.98413058 31.3545421,9.49988665 L33.5552632,6.4257538 C34.1298358,5.65858082 33.9401184,4.69553389 33.1704081,4.12423487 C32.4061182,3.55293584 31.3545421,3.74336885 30.8775385,4.51054183 L30.8775385,4.51054183 Z M20.5460742,9.6957606 C14.0414797,9.6957606 8.68603021,14.9734754 8.68603021,21.6005441 C8.68603021,24.386307 9.64003741,26.8782589 11.1740376,28.8968488 C12.5129,30.6270687 13.8517624,32.5422807 15.0009074,34.5608706 L15.0009074,38.4946724 L25.8093753,38.4946724 L25.8093753,34.6533666 C26.9585203,32.7327137 28.3895311,30.6216277 29.7283935,28.8914078 C31.3545421,26.872818 32.2164009,24.380866 32.2164009,21.5951032 C32.4061182,15.0714124 27.0506687,9.6957606 20.5460742,9.6957606 L20.5460742,9.6957606 Z M18.442922,15.0714124 C16.0524835,15.0714124 14.0414797,16.9920653 14.0414797,19.3915212 C14.0414797,19.7778282 13.7541934,20.0607572 13.3747588,20.0607572 C12.9899036,20.0607572 12.7026173,19.7723872 12.7026173,19.3915212 C12.7026173,16.2248923 15.2827732,13.6295625 18.442922,13.6295625 C18.8277772,13.6295625 19.1150634,13.9179324 19.1150634,14.2987985 C19.1150634,14.7830424 18.8277772,15.0714124 18.442922,15.0714124 L18.442922,15.0714124 Z" id="形状"></path>
                    </g>
                </g>
            </g>
        </g>
    </g>
</svg>